<svg width="616" height="413" viewBox="0 0 616 413" fill="none" xmlns="http://www.w3.org/2000/svg">
<g clip-path="url(#clip0_1_802)">
<path d="M535.691 409.264C484.41 415.816 431.58 413.087 323.631 406.23C263.016 402.38 141.14 408.758 80.3063 409.264C35.9558 409.631 0 375.835 0 334.6V77.441C0 36.2054 36.0323 0.350899 80.3089 2.77653C121.428 5.02814 181.905 13.9476 244.95 8.4873C319.933 1.99347 462.255 -3.52483 535.691 2.77653C579.857 6.56789 616 36.2054 616 77.441V334.6C616 375.835 579.633 403.648 535.691 409.264Z" fill="#ECF1FF"/>
<path d="M306.818 372.094C453.571 372.094 572.539 355.139 572.539 334.225C572.539 313.311 453.571 296.356 306.818 296.356C160.065 296.356 41.0976 313.311 41.0976 334.225C41.0976 355.139 160.065 372.094 306.818 372.094Z" fill="#F1F4FD"/>
<path d="M125.174 318.73L120.037 319.774L120.359 254.601L124.311 256.276L125.174 318.73Z" fill="#2F1A31"/>
<path d="M140.354 322.355C140.354 322.355 113.152 322.843 104.084 322.914C103.082 322.922 102.364 321.546 102.364 320.544C102.364 319.542 103.826 318.356 104.828 318.361C113.711 318.408 140.354 318.733 140.354 318.733C141.356 318.733 142.166 319.545 142.166 320.544C142.166 321.546 141.354 322.355 140.354 322.355Z" fill="#2F1A31"/>
<path d="M103.665 325.609C103.997 323.621 105.741 322.355 107.757 322.355C109.772 322.355 111.848 323.684 111.848 325.701C111.848 328.211 109.308 329.978 107.292 329.978C105.277 329.978 103.248 328.119 103.665 325.609Z" fill="#2F1A31"/>
<path d="M132.682 325.609C133.015 323.621 134.758 322.355 136.774 322.355C138.79 322.355 140.866 323.684 140.866 325.701C140.866 328.211 138.325 329.978 136.31 329.978C134.294 329.978 132.265 328.119 132.682 325.609Z" fill="#2F1A31"/>
<path d="M110.036 256.692C110.036 256.692 109.06 261.013 119.103 262.408C129.147 263.803 133.471 256.692 133.471 256.692H110.036Z" fill="#2F1A31"/>
<path d="M345.618 75.6532C345.618 50.076 322.866 32.4427 297.521 32.4427C260.813 32.4427 248.208 53.1766 248.208 78.7538C248.208 104.331 277.297 122.447 302.645 122.447C327.992 122.447 345.62 101.23 345.62 75.6532H345.618Z" fill="#3B60E4"/>
<path d="M353.638 116.707C353.638 116.707 337.593 114.207 336.448 98.1113L323.842 107.41C323.842 107.41 329.86 122.202 353.638 116.71V116.707Z" fill="#3B60E4"/>
<path d="M303.37 127.852C290.694 127.852 276.909 123.254 266.499 115.55C255.012 107.049 248.686 95.8149 248.686 83.9135C248.686 69.9451 252.371 58.8716 259.642 50.9988C268.002 41.9449 280.99 37.3547 298.247 37.3547C310.923 37.3547 322.895 41.6417 331.963 49.4274C341.397 57.5296 346.594 68.6769 346.594 80.813C346.594 91.0692 343.808 100.732 338.534 108.763C342.341 119.623 354.287 121.603 354.408 121.622L355.675 121.819L354.424 122.107C347.185 123.778 337.002 124.553 329.464 118.8C322.104 124.722 313.086 127.854 303.37 127.854V127.852ZM298.247 37.8477C281.135 37.8477 268.272 42.3852 260.006 51.3337C252.822 59.1115 249.179 70.0743 249.179 83.9135C249.179 95.6541 255.434 106.749 266.792 115.151C277.12 122.795 290.794 127.356 303.367 127.356C313.036 127.356 322.003 124.221 329.301 118.292L329.454 118.168L329.609 118.289C333.577 121.379 340.864 124.451 353.211 121.864C350.071 121.068 341.188 118.041 338.02 108.808L337.98 108.692L338.046 108.589C343.309 100.619 346.093 91.0111 346.093 80.8077C346.093 68.8166 340.959 57.8038 331.635 49.7992C322.66 42.0899 310.799 37.8451 298.244 37.8451L298.247 37.8477Z" fill="#2F1A31"/>
<path d="M142.159 250.106C142.267 237.967 141.731 185.771 124.739 181.223C105.498 176.072 80.8287 166.717 73.5842 183.625C66.3371 200.533 90.6111 252.619 90.6111 252.619C90.6111 252.619 91.9592 257.246 96.8767 257.762C101.794 258.279 162.362 260.093 162.457 257.762C162.517 256.278 150.725 252.587 142.161 250.106H142.159Z" fill="#FFA737"/>
<g opacity="0.5">
<path d="M471.538 67.9176C471.114 58.7213 462.848 50.9461 453.636 50.9461C440.587 50.9461 436.305 60.9386 435.791 70.127C435.255 79.674 443.677 86.2074 452.886 86.2074C462.096 86.2074 472.066 79.3391 471.536 67.915L471.538 67.9176Z" fill="#2C4DC0"/>
<path d="M468.301 68.88C468.301 61.5583 460.988 53.7567 453.665 53.5221C442.83 53.1767 438.437 64.1605 438.437 71.4822C438.437 78.8039 446.001 83.1701 453.327 83.1701C460.653 83.1701 468.301 76.2017 468.301 68.88Z" fill="#FF595E"/>
<path d="M455.232 68.6321C455.134 67.6329 454.071 66.9658 453.066 66.9658C452.061 66.9658 450.982 68.176 450.982 69.1805C450.982 70.1851 452.061 71.005 453.066 71.005C454.071 71.005 455.414 70.4856 455.232 68.6321Z" fill="#2C4DC0"/>
<path d="M453.066 69.5496H452.702C452.501 69.5496 452.34 69.3888 452.34 69.1884C452.34 68.988 451.884 68.3131 452.084 68.3131L452.288 67.8886L452.723 57.9962L452.272 58.2731C452.158 58.4366 451.931 58.4761 451.77 58.3654C451.607 58.252 451.565 58.0279 451.678 57.8644L452.789 56.2535C452.879 56.1217 453.042 56.0663 453.195 56.1138C453.345 56.1612 453.448 56.3009 453.448 56.4591L454.05 69.1647C454.05 69.3624 453.266 69.5523 453.068 69.5523L453.066 69.5496Z" fill="#2C4DC0"/>
<path d="M454.314 58.3232C454.208 58.3232 454.105 58.2783 454.034 58.1913L452.662 57.2105C452.536 57.055 452.702 56.3036 452.857 56.177C453.01 56.0505 453.24 56.0742 453.364 56.2297L454.593 57.7378C454.72 57.8934 454.696 58.1201 454.541 58.2467C454.475 58.3021 454.393 58.3284 454.314 58.3284V58.3232Z" fill="#2C4DC0"/>
<path d="M446.52 70.7176C446.425 70.7176 446.331 70.6807 446.262 70.6069L445.188 69.4969C445.088 69.3914 445.059 69.2385 445.114 69.1041C445.17 68.9696 445.302 68.8852 445.447 68.8852L453.971 68.437C454.169 68.437 454.282 69.0645 454.282 69.2649V69.6287C454.282 69.8291 454.121 69.9899 453.921 69.9899C453.72 69.9899 453.272 70.1692 453.272 69.9688L453.559 69.6235L446.299 69.6076L446.779 70.1059C446.919 70.2483 446.914 70.4777 446.771 70.6174C446.7 70.686 446.61 70.7176 446.52 70.7176Z" fill="#2C4DC0"/>
<path d="M445.449 69.6076C445.37 69.6076 445.288 69.5813 445.22 69.5259C445.064 69.3993 445.043 69.1726 445.167 69.017L446.17 67.7884C446.296 67.6328 446.523 67.6118 446.679 67.7383C446.834 67.8649 446.856 68.0916 446.732 68.2472L446.338 69.1673C446.267 69.2543 445.555 69.6076 445.449 69.6076Z" fill="#2C4DC0"/>
</g>
<path d="M173.714 143.908L202.763 178.202C202.763 178.202 169.793 186.887 170.115 186.309C170.437 185.732 164.259 148.928 164.259 148.928L173.714 143.908Z" fill="#F7B686"/>
<path d="M201.7 329.129C201.7 329.129 201.52 335.216 205.544 337.157C209.567 339.097 221.41 341.294 216.74 344.961C214.06 347.065 202.088 344.959 198.684 344.774C195.281 344.589 192.007 345.897 189.601 343.482C186.955 340.827 190.419 328.517 190.419 328.517C190.419 328.517 193.271 330.207 195.917 330.281C199.726 330.389 201.702 329.131 201.702 329.131L201.7 329.129Z" fill="#1F2232"/>
<path d="M235.418 326.152C235.418 326.152 235.239 332.24 239.262 334.18C243.285 336.121 255.128 338.317 250.456 341.984C247.776 344.088 235.803 341.982 232.4 341.795C228.997 341.61 225.72 342.918 223.317 340.503C220.671 337.848 224.135 325.538 224.135 325.538C224.135 325.538 226.987 327.228 229.633 327.301C233.442 327.41 235.418 326.152 235.418 326.152Z" fill="#1F2232"/>
<path d="M243.177 319.033C240.164 279.148 239.455 252.236 226.826 234.946C213.004 216.023 175.948 202.637 161.66 201.804C138.36 200.444 127.379 203.908 127.379 203.908C109.888 240.256 137.286 245.078 157.55 246.072C158.22 246.104 158.89 246.143 159.565 246.185C171.833 246.958 193.648 250.072 201.905 262.255C208.443 271.902 212.981 285.449 214.893 320.383C215.26 327.088 220.887 332.287 227.604 332.103C227.604 332.103 244.262 333.376 243.177 319.031V319.033Z" fill="#FF595E"/>
<path d="M210.105 321.087C210.501 281.091 211.743 260.671 199.732 242.948C192.015 231.56 180.41 222.965 165.237 217.4C154.41 213.429 141.676 210.99 127.387 210.157C104.087 208.796 93.6159 205.983 93.6159 205.983C74.7582 252.513 143.739 242.634 161.697 262.458C169.522 271.096 179.217 287.524 181.13 322.461C181.496 329.166 187.124 334.365 193.841 334.18C193.841 334.18 209.96 335.715 210.105 321.09V321.087Z" fill="#FF595E"/>
<path d="M209.992 281.803C209.981 281.563 208.796 257.836 204.818 249.55C199.784 239.064 185.174 228.114 170.078 223.514L170.158 223.258C185.319 227.877 199.998 238.887 205.061 249.434C209.063 257.77 210.247 281.549 210.261 281.789L209.994 281.803H209.992Z" fill="#020202"/>
<path d="M110.147 132.107C110.147 132.107 120.058 115.172 142.91 120.369C165.762 125.566 175.072 148.891 176.708 204.905C176.708 204.905 155.553 204.127 99.9687 222.554C93.3838 224.737 83.728 223.005 87.1075 211.797C93.3917 190.96 99.478 149.403 110.144 132.107H110.147Z" fill="#3B60E4"/>
<path d="M85.0076 137.053L108.514 141.469C108.514 141.469 149.617 153.619 161.122 153.714C172.627 153.808 177.389 145.398 177.389 145.398C177.389 145.398 168.108 129.655 148.659 122.228C146.833 121.527 144.918 120.904 142.91 120.372C139.541 119.481 136.117 118.7 132.69 118.661C93.8903 118.215 85.0076 137.053 85.0076 137.053Z" fill="#3B60E4"/>
<path d="M85.0075 137.053C84.4984 138.904 89.4265 141.997 96.0114 143.956C102.599 145.915 108.35 146.004 108.857 144.151C109.366 142.3 104.438 139.21 97.8528 137.248C91.2653 135.289 85.5141 135.2 85.0075 137.053Z" fill="#2F1A31"/>
<path d="M143.438 212.163C143.438 212.163 156.645 211.412 160.056 214.244C163.467 217.075 165.681 223.266 163.195 221.961C160.708 220.656 157.993 218.109 157.993 218.109C157.993 218.109 163.541 223.822 161.642 224.539C159.742 225.256 154.967 220.242 154.967 220.242C154.967 220.242 161.027 227.563 159.011 227.664C156.998 227.761 152.434 222.166 152.434 222.166C152.434 222.166 157.8 229.203 155.458 229.264C153.118 229.322 151.062 223.419 149.163 224.136C147.263 224.853 141.829 228.992 139.188 223.962L143.438 212.163Z" fill="#F7B686"/>
<path d="M94.753 197.602C104.48 213.516 116.932 219.91 139.188 223.962L143.441 212.166C127.237 209.216 118.94 197.494 112.418 186.823C103.145 171.645 104.815 153.152 106.205 144.979C106.337 144.204 106.031 143.423 105.406 142.946C103.335 141.359 97.9663 138.134 88.3739 137.947C87.5191 137.931 86.7646 138.503 86.5456 139.326C82.5329 154.431 82.5039 177.559 94.753 197.604V197.602Z" fill="#F7B686"/>
<g opacity="0.3">
<path d="M99.6416 194.369C99.2485 194.369 98.8422 194.287 98.4359 194.124C97.2936 193.663 96.27 192.582 95.7001 191.229C94.7029 188.867 95.3202 186.333 97.0772 185.584C97.7737 185.286 98.5573 185.297 99.3434 185.616C100.486 186.077 101.509 187.158 102.079 188.511C103.076 190.873 102.459 193.404 100.702 194.156C100.367 194.298 100.008 194.372 99.6416 194.372V194.369ZM98.1378 186.141C97.874 186.141 97.6181 186.191 97.3806 186.293C96.0114 186.876 95.5761 188.956 96.4098 190.928C96.9031 192.094 97.7684 193.022 98.7235 193.407C99.3171 193.647 99.8948 193.66 100.399 193.444C101.768 192.858 102.201 190.781 101.37 188.809C100.876 187.643 100.011 186.715 99.0559 186.33C98.7446 186.204 98.4333 186.141 98.1378 186.141Z" fill="#E08B65"/>
</g>
<path d="M144.401 112.431L144.314 112.196C144.34 112.185 146.978 111.173 147.511 109.219C147.788 108.204 147.453 107.102 146.517 105.942C146.076 105.396 145.673 104.903 145.301 104.452C142.747 101.341 141.789 100.178 142.019 97.3362L142.269 97.3573C142.05 100.099 142.918 101.157 145.496 104.294C145.868 104.745 146.271 105.238 146.712 105.784C147.701 107.01 148.052 108.188 147.754 109.285C147.187 111.363 144.517 112.388 144.404 112.431H144.401Z" fill="#E28569"/>
<path d="M142.143 97.3468C142.143 97.3468 141.744 101.752 145.158 105.873C148.572 109.994 145.899 113.667 141.831 112.433C137.763 111.199 136.924 116.29 131.659 114.208C126.393 112.125 142.143 97.3441 142.143 97.3441V97.3468Z" fill="#FF595E"/>
<path d="M121.823 119.077C123.931 118.574 125.614 117.097 126.213 115.014L128.063 108.573L128.604 106.691L131.78 95.6198L132.387 106.593L132.751 113.179L132.854 115.035C132.938 116.572 134.291 118.808 135.83 118.887C135.83 118.887 138.156 121.598 134.972 123.077C131.231 124.817 124.438 122.436 121.71 119.09L121.823 119.08V119.077Z" fill="#F7B686"/>
<path d="M128.028 108.394C128.039 108.455 128.05 108.513 128.063 108.573C128.77 112.046 132.732 113.203 132.732 113.203L132.753 113.182L132.389 106.596C131.189 106.322 129.501 106.1 128.604 106.693C128.134 107.002 127.883 107.534 128.028 108.397V108.394Z" fill="#2F1A31"/>
<path d="M142.72 95.9889C141.829 89.0284 136.531 83.9689 130.886 84.6913C125.24 85.4137 121.385 91.6412 122.275 98.6017C123.166 105.562 128.464 110.622 134.109 109.899C139.755 109.177 143.61 102.949 142.72 95.9889Z" fill="#F7B686"/>
<path d="M123.884 100.329C125.184 101.286 126.817 101.191 127.532 100.12C128.247 99.0474 127.775 97.4022 126.477 96.4451C125.179 95.488 123.543 95.5829 122.829 96.6534C122.114 97.7265 122.586 99.3717 123.884 100.329Z" fill="#F7B686"/>
<path d="M133.5 97.2914C133.566 97.265 133.619 97.207 133.637 97.1332C133.669 97.0093 133.595 96.8801 133.471 96.8484C133.397 96.83 131.73 96.2236 130.545 97.9031C130.471 98.0085 130.49 98.1535 130.595 98.23C130.698 98.3065 130.825 98.2643 130.922 98.1799C131.899 97.3257 133.289 97.2861 133.35 97.3019C133.4 97.3151 133.452 97.3098 133.497 97.2914H133.5Z" fill="#060633"/>
<path d="M131.988 100.081C132.041 100.637 132.413 101.056 132.817 101.019C133.22 100.98 133.505 100.497 133.453 99.9411C133.4 99.3848 133.028 98.9656 132.624 99.0025C132.221 99.0421 131.936 99.5245 131.988 100.081Z" fill="#060633"/>
<path d="M141.955 97.4417C142.027 97.4417 142.098 97.4101 142.143 97.3494C142.219 97.2466 142.201 97.0989 142.098 97.0225C142.037 96.9777 140.726 95.7833 138.993 96.8854C138.882 96.9539 138.848 97.0963 138.914 97.207C138.98 97.3178 139.114 97.3257 139.235 97.2861C140.465 96.8696 141.765 97.36 141.816 97.3969C141.858 97.4285 141.908 97.4443 141.955 97.4443V97.4417Z" fill="#060633"/>
<path d="M139.494 99.4455C139.33 99.9807 139.515 100.511 139.903 100.627C140.291 100.745 140.739 100.408 140.9 99.8726C141.064 99.3374 140.879 98.8074 140.491 98.6914C140.103 98.5728 139.655 98.9102 139.494 99.4455Z" fill="#060633"/>
<path d="M135.518 86.4209C135.518 86.4209 135.859 90.8213 130.487 92.2661C125.118 93.711 121.644 96.5031 122.881 100.342C124.119 104.183 133.972 111.218 127.902 115.207C121.831 119.196 122.457 113.124 115.613 115.389C108.77 117.653 106.306 108.447 110.442 102.396C114.579 96.3422 110.783 82.2077 128.986 80.5308C147.19 78.8514 142.399 94.1513 142.399 94.1513C142.399 94.1513 136.125 91.2537 135.518 86.4209Z" fill="#FF595E"/>
<path d="M126.142 116.256L126.071 116.127C127.34 115.418 128.028 114.55 128.176 113.482C128.588 110.522 124.628 106.556 121.135 103.058C120.209 102.129 119.333 101.251 118.547 100.408C116.362 98.0586 115.803 94.9923 117.088 92.4058C118.515 89.5346 121.731 87.987 125.48 88.364C129.1 88.7305 131.421 87.6891 132.732 86.7531C134.152 85.738 134.724 84.6201 134.729 84.6096L134.861 84.6755C134.838 84.7203 132.495 89.2209 125.464 88.5117C121.779 88.1399 118.621 89.6559 117.222 92.4718C115.946 95.0371 116.481 97.9663 118.655 100.305C119.438 101.146 120.312 102.024 121.238 102.952C124.754 106.474 128.741 110.469 128.321 113.504C128.168 114.606 127.435 115.534 126.142 116.256Z" fill="white"/>
<path d="M138.098 101.42C138.146 101.373 138.193 101.32 138.241 101.27C137.99 100.289 137.882 99.2029 137.937 98.0929C137.882 98.056 137.745 97.9901 137.547 97.9215C137.542 99.1449 137.742 100.347 138.101 101.42H138.098ZM137.618 100.482C137.684 100.885 137.774 101.278 137.882 101.658C138.402 103.479 139.391 104.94 140.678 105.531C140.689 105.533 140.694 105.539 140.705 105.541C141.233 105.776 141.771 105.86 142.304 105.794C142.668 105.744 143.024 105.636 143.372 105.454C143.712 105.278 144.032 105.046 144.33 104.753C144.578 104.516 144.815 104.241 145.031 103.928C145.673 103.018 146.153 101.821 146.398 100.461C147.108 96.6033 145.749 92.5904 143.375 91.5094C143.222 91.4383 143.066 91.3776 142.913 91.3381C142.393 91.1852 141.871 91.1852 141.359 91.3249C141.132 91.3882 140.905 91.4752 140.686 91.5859C140.436 91.7177 140.196 91.8786 139.964 92.071C139.84 92.1765 139.718 92.2925 139.597 92.4191C138.671 93.3709 137.972 94.8394 137.653 96.5743C137.626 96.714 137.602 96.8537 137.584 96.9935C137.581 97.004 137.584 97.0198 137.581 97.033H137.576C137.536 97.323 137.51 97.6131 137.492 97.9031C137.434 98.7837 137.481 99.6564 137.616 100.482H137.618ZM146.079 99.4112C146.05 99.7329 146.002 100.057 145.944 100.379C145.72 101.621 145.293 102.71 144.731 103.553C144.53 103.859 144.311 104.125 144.076 104.36C143.792 104.647 143.483 104.879 143.156 105.048C142.428 105.409 141.67 105.452 140.945 105.148C140.919 105.143 140.897 105.13 140.868 105.119C139.631 104.55 138.692 103.089 138.238 101.27C137.988 100.289 137.879 99.2029 137.935 98.0929C137.951 97.7923 137.977 97.4918 138.022 97.1886C138.043 97.0146 138.072 96.8432 138.104 96.6665C138.407 94.9818 139.08 93.5765 139.966 92.6906C140.256 92.4006 140.565 92.1686 140.895 91.9946C141.114 91.8838 141.327 91.8021 141.546 91.7573C141.668 91.723 141.784 91.7046 141.903 91.694C141.903 91.694 141.906 91.694 141.913 91.694C142.232 91.6676 142.544 91.7019 142.858 91.8021C142.963 91.8337 143.071 91.8786 143.179 91.926C145.179 92.8383 146.38 96.0601 146.074 99.3875C146.074 99.398 146.074 99.4033 146.074 99.4138L146.079 99.4112Z" fill="#6F4975"/>
<g opacity="0.3">
<path d="M125.52 95.6831C125.161 99.3875 126.965 103.084 129.551 103.938C132.136 104.795 134.526 102.485 134.885 98.7837C135.244 95.0794 133.439 91.3829 130.854 90.5287C128.268 89.6718 125.878 91.9814 125.52 95.6858V95.6831Z" fill="white"/>
</g>
<g opacity="0.3">
<path d="M137.594 96.8906C137.236 100.611 138.832 104.392 141.161 105.336C143.491 106.279 145.67 104.028 146.031 100.305C146.39 96.5848 144.794 92.804 142.465 91.8601C140.135 90.9162 137.956 93.1678 137.597 96.888L137.594 96.8906Z" fill="white"/>
</g>
<path d="M125.311 97.8741C125.49 98.9788 125.844 100.023 126.324 100.93C127.079 102.333 128.147 103.416 129.4 103.901C129.482 103.938 129.566 103.97 129.654 103.996C130.218 104.186 130.785 104.239 131.334 104.17C131.64 104.131 131.943 104.052 132.242 103.925C132.484 103.83 132.724 103.706 132.962 103.556C134.437 102.591 135.415 100.719 135.645 98.4093C135.666 98.1984 135.682 97.9848 135.687 97.7739C135.7 97.4813 135.698 97.1886 135.687 96.8986C135.582 94.5547 134.679 92.3453 133.31 90.9321C132.701 90.2914 131.988 89.8194 131.218 89.5663C130.07 89.1998 128.931 89.3501 127.902 90.0172C126.572 90.8846 125.649 92.5008 125.316 94.4993C125.279 94.7102 125.25 94.9317 125.227 95.1532C125.206 95.3878 125.187 95.6225 125.184 95.8492C125.161 96.5374 125.206 97.215 125.314 97.8715L125.311 97.8741ZM133.832 102.1C133.505 102.536 133.128 102.899 132.709 103.176C132.55 103.276 132.381 103.366 132.218 103.437C131.447 103.78 130.619 103.825 129.796 103.566C129.706 103.535 129.614 103.506 129.527 103.469C128.406 103.018 127.445 102.042 126.765 100.785C126.018 99.4218 125.593 97.7238 125.63 95.9811C125.633 95.7227 125.651 95.4643 125.675 95.2085C125.712 94.8447 125.77 94.4993 125.847 94.1592C125.897 93.9193 125.96 93.682 126.039 93.4579C126.039 93.4526 126.039 93.4473 126.039 93.4421C126.161 93.0492 126.316 92.6775 126.493 92.3347C126.918 91.5095 127.482 90.8398 128.152 90.4021C128.606 90.1015 129.097 89.9196 129.601 89.859C130.084 89.7957 130.58 89.8458 131.076 90.0014C131.761 90.2255 132.395 90.642 132.941 91.201C134.268 92.5351 135.144 94.6865 135.236 96.9777C135.249 97.273 135.246 97.5656 135.231 97.8609C135.228 98.027 135.215 98.1958 135.196 98.3645C135.049 99.8093 134.571 101.104 133.867 102.056C133.859 102.071 133.848 102.09 133.835 102.1H133.832Z" fill="#6F4975"/>
<path d="M138.249 98.1773C138.154 98.1878 138.054 98.1694 137.966 98.114C137.916 98.0797 136.703 97.3599 134.851 97.9637C134.632 98.0243 134.384 97.9162 134.307 97.6921C134.231 97.468 134.355 97.2255 134.579 97.1569C136.811 96.3844 138.354 97.3494 138.423 97.3863C138.621 97.5155 138.681 97.7818 138.552 97.9769C138.484 98.0929 138.367 98.1614 138.246 98.1773H138.249Z" fill="#6F4975"/>
<path d="M135.225 106.438C133.875 106.438 132.716 105.839 132.643 105.8C132.479 105.713 132.416 105.51 132.503 105.346C132.59 105.183 132.793 105.119 132.957 105.204C132.98 105.217 135.352 106.435 136.998 105.217C137.149 105.106 137.36 105.138 137.47 105.288C137.581 105.438 137.55 105.649 137.399 105.76C136.711 106.269 135.94 106.438 135.225 106.438Z" fill="#2F1A31"/>
<path d="M459.234 349.304L459.944 349.235C460.498 349.182 460.912 348.267 460.867 347.192L455.356 211.409L444.88 206.226L457.58 346.567C457.672 348.173 458.405 349.383 459.234 349.304Z" fill="#2F1A31"/>
<path d="M160.351 349.304L159.642 349.235C159.088 349.182 158.676 348.267 158.718 347.192L164.23 211.409L174.706 206.226L162.008 346.567C161.916 348.173 161.182 349.383 160.354 349.304H160.351Z" fill="#2F1A31"/>
<path d="M481.205 212.838C481.205 222.396 403.658 230.145 308 230.145C212.342 230.145 134.795 222.396 134.795 212.838C134.795 203.281 212.342 195.532 308 195.532C403.658 195.532 481.205 203.281 481.205 212.838Z" fill="#51535E"/>
<path d="M481.207 204.857H134.795V212.838H481.207V204.857Z" fill="#74A1BD"/>
<path d="M481.205 204.857C481.205 214.415 403.658 222.164 308 222.164C212.342 222.164 134.795 214.415 134.795 204.857C134.795 195.3 212.342 187.551 308 187.551C403.658 187.551 481.205 195.3 481.205 204.857Z" fill="#1F2232"/>
<path d="M183.979 217.476C183.961 217.476 183.942 217.476 183.924 217.473C169.356 215.981 157.716 214.259 149.326 212.358C149.036 212.293 148.854 212.005 148.92 211.715C148.986 211.425 149.274 211.246 149.564 211.309C157.911 213.199 169.511 214.916 184.034 216.403C184.33 216.435 184.546 216.698 184.515 216.993C184.486 217.27 184.253 217.476 183.979 217.476Z" fill="#42428E"/>
<path d="M451.831 215.042C451.57 215.042 451.343 214.853 451.301 214.589C451.256 214.296 451.457 214.019 451.749 213.975C451.918 213.948 468.718 211.299 475.029 208.886C475.306 208.781 475.617 208.918 475.723 209.197C475.828 209.474 475.691 209.785 475.411 209.891C468.995 212.345 452.609 214.929 451.916 215.037C451.887 215.042 451.86 215.045 451.831 215.045V215.042Z" fill="#42428E"/>
<path d="M315.909 337.848C315.909 337.848 315.632 343.888 311.506 345.507C307.38 347.126 295.495 348.42 299.843 352.396C302.338 354.677 314.345 353.485 317.727 353.554C321.109 353.622 324.254 355.162 326.813 352.953C329.628 350.522 327.119 338.08 327.119 338.08C327.119 338.08 324.169 339.538 321.547 339.417C317.767 339.24 315.907 337.848 315.907 337.848H315.909Z" fill="#1F2232"/>
<path d="M279.84 344.046C279.84 344.046 279.5 350.081 275.355 351.658C271.211 353.232 259.312 354.397 263.618 358.421C266.087 360.728 278.107 359.665 281.489 359.773C284.868 359.879 287.997 361.453 290.58 359.27C293.421 356.868 291.047 344.4 291.047 344.4C291.047 344.4 288.082 345.826 285.462 345.676C281.684 345.459 279.84 344.046 279.84 344.046Z" fill="#1F2232"/>
<path d="M282.6 349.043C275.614 348.249 270.485 342.101 270.968 335.09C273.693 295.484 277.381 275.536 290.77 259.031C299.373 248.429 311.936 238.365 327.003 232.868C339.993 228.128 350.939 226.121 365.14 226.514C388.298 227.152 398.859 231.516 398.859 231.516C413.055 268.949 385.552 271.383 365.428 270.642C364.763 270.618 364.096 270.597 363.426 270.581C351.227 270.299 329.39 271.523 320.186 282.865C312.896 291.848 307.256 304.857 302.383 339.243C301.449 345.839 295.44 350.503 288.815 349.749L282.6 349.043Z" fill="#FFA737"/>
<path d="M317.574 342.087C310.593 341.27 305.393 335.599 305.781 329.213C307.984 293.135 311.403 274.992 324.549 260.12C332.997 250.565 345.082 243.873 360.476 240.237C371.462 237.643 384.22 236.602 398.4 237.142C421.521 238.028 432.069 236.443 432.069 236.443C447.599 297.219 379.898 264.91 360.721 281.136C352.366 288.207 341.6 302.122 337.189 333.41C336.342 339.414 330.406 343.588 323.784 342.812L317.571 342.085L317.574 342.087Z" fill="#FFA737"/>
<path d="M306.472 317.238L306.211 317.188C306.23 317.098 308.032 308.123 315.543 298.745C319.954 293.24 325.444 288.671 331.857 285.167C339.869 280.79 349.359 278.072 360.057 277.094L360.08 277.357C349.419 278.336 339.967 281.041 331.984 285.399C325.602 288.884 320.138 293.43 315.751 298.909C308.28 308.234 306.491 317.146 306.472 317.235V317.238Z" fill="#020202"/>
<path d="M387.668 125.822L385.441 116.185L384.792 113.38L380.983 96.8854L379.141 112.879L378.038 122.478L377.688 125.516C377.45 127.577 376.157 127.92 374.487 129.605C373.812 130.288 369.504 134.411 373.875 136.739C379.321 139.64 390.121 136.65 394.485 132.015C394.453 132.004 388.38 128.935 387.663 125.822H387.668Z" fill="#F7B686"/>
<path d="M367.222 100.049C369.164 90.6789 377.039 84.3855 384.816 85.9938C392.593 87.6021 397.324 96.5031 395.382 105.873C393.44 115.244 385.565 121.537 377.788 119.929C370.011 118.321 365.28 109.42 367.222 100.049Z" fill="#F7B686"/>
<path d="M373.672 96.3501C365.452 96.0549 361.822 91.0322 362.051 86.6503C362.344 81.0291 366.246 76.315 370.211 78.7063C374.176 81.0951 372.786 75.8483 376.785 75.5978C384.259 75.1285 385.262 80.4886 391.298 81.19C399.263 82.1154 407.388 96.0865 399.978 105.304C399.978 105.304 380.165 96.5848 373.672 96.3501Z" fill="#2F1A31"/>
<path d="M366.789 90.1516C366.789 90.1516 374.928 99.2266 373.422 103.883C371.918 108.542 372.074 110.419 377.002 113.327C381.932 116.232 377.11 120.011 383.906 120.809C390.702 121.608 399.648 114.171 400.621 100.932C401.165 93.5528 397.279 88.4115 397.279 88.4115L366.787 90.1516H366.789Z" fill="#2F1A31"/>
<path d="M369.016 103.348C370.113 102.013 371.968 101.726 373.16 102.704C374.353 103.682 374.432 105.56 373.335 106.894C372.237 108.228 370.382 108.515 369.19 107.537C367.998 106.559 367.918 104.682 369.016 103.348Z" fill="#F7B686"/>
<path d="M398.25 103.421C398.163 103.421 398.083 103.369 398.052 103.284C397.405 101.563 395.572 100.79 395.553 100.782C395.445 100.737 395.395 100.613 395.437 100.505C395.482 100.397 395.606 100.347 395.714 100.389C395.796 100.424 397.738 101.241 398.45 103.134C398.492 103.245 398.437 103.366 398.326 103.406C398.302 103.413 398.276 103.419 398.252 103.419L398.25 103.421Z" fill="#2F1A31"/>
<path d="M395.487 99.7803C395.39 99.7803 395.3 99.7117 395.279 99.6115C395.255 99.4982 395.329 99.3848 395.443 99.3611C395.464 99.3558 397.638 98.8865 397.711 97.1411C397.717 97.0251 397.812 96.9328 397.933 96.9381C398.049 96.9434 398.141 97.0409 398.136 97.1596C398.046 99.2372 395.553 99.7697 395.527 99.775C395.514 99.7776 395.498 99.7803 395.485 99.7803H395.487Z" fill="#2F1A31"/>
<path d="M370.842 77.628C370.657 77.628 370.47 77.5911 370.277 77.5173C369.575 77.2536 369.071 76.845 368.581 76.4495C367.676 75.7192 366.892 75.0864 365.061 75.532C364.943 75.561 364.821 75.4871 364.792 75.3685C364.763 75.2498 364.837 75.1286 364.956 75.0996C367 74.6013 367.945 75.3659 368.86 76.1041C369.322 76.4758 369.799 76.8634 370.433 77.1033C370.754 77.2246 371.045 77.2088 371.316 77.0532C372.337 76.4679 372.733 74.2242 372.736 74.2005C372.757 74.0792 372.87 73.9975 372.992 74.0186C373.113 74.0397 373.195 74.153 373.174 74.2743C373.155 74.3745 372.738 76.75 371.535 77.4356C371.314 77.5621 371.082 77.6254 370.839 77.6254L370.842 77.628Z" fill="#2F1A31"/>
<path d="M391.451 78.6932C388.172 78.6932 385.75 76.0777 385.644 75.9617C385.563 75.872 385.568 75.7297 385.66 75.648C385.75 75.5662 385.89 75.5715 385.974 75.6611C386.001 75.6901 388.626 78.5139 391.942 78.2265C392.063 78.216 392.171 78.3056 392.182 78.4295C392.192 78.5508 392.103 78.6589 391.979 78.6694C391.802 78.6853 391.625 78.6932 391.451 78.6932Z" fill="#2F1A31"/>
<path d="M371.045 108.288C370.601 108.288 370.311 108.167 370.298 108.162C370.245 108.141 370.222 108.08 370.245 108.027C370.266 107.975 370.327 107.951 370.38 107.972C370.454 108.004 372.184 108.697 373.625 106.287C373.654 106.24 373.717 106.224 373.765 106.253C373.812 106.282 373.828 106.345 373.799 106.393C373 107.729 372.095 108.141 371.477 108.249C371.322 108.275 371.177 108.286 371.047 108.286L371.045 108.288Z" fill="#2F1A31"/>
<path d="M385.296 126.876C349.106 126.876 342.033 150.732 342.033 150.732C342.033 150.732 353.501 154.006 353.464 157.745C353.332 170.545 345.402 206.661 347.035 228.824C347.035 228.824 385.636 293.005 436.218 239.325C436.218 239.325 456.867 126.876 385.299 126.876H385.296Z" fill="#FF595E"/>
<path d="M394.408 343.263H400.79V273.764L396.601 278.383L394.408 343.263Z" fill="#2F1A31"/>
<path d="M378.45 347.076C378.45 347.076 407.045 347.59 416.58 347.661C417.632 347.669 418.39 346.221 418.39 345.169C418.39 344.117 416.851 342.868 415.799 342.873C406.462 342.92 378.453 343.263 378.453 343.263C377.4 343.263 376.545 344.117 376.545 345.169C376.545 346.221 377.4 347.076 378.453 347.076H378.45Z" fill="#2F1A31"/>
<path d="M417.02 350.495C416.672 348.404 414.839 347.076 412.72 347.076C410.602 347.076 408.417 348.473 408.417 350.593C408.417 353.229 411.087 355.088 413.208 355.088C415.329 355.088 417.461 353.134 417.02 350.495Z" fill="#2F1A31"/>
<path d="M386.518 350.495C386.169 348.404 384.336 347.076 382.217 347.076C380.099 347.076 377.915 348.473 377.915 350.593C377.915 353.229 380.584 355.088 382.705 355.088C384.827 355.088 386.958 353.134 386.518 350.495Z" fill="#2F1A31"/>
<path d="M410.322 278.048C410.322 278.048 411.348 282.591 400.79 284.057C390.232 285.523 385.687 278.048 385.687 278.048H410.322Z" fill="#2F1A31"/>
<path d="M384.832 271.003C384.718 258.245 386.689 206.664 404.874 203.297C412.01 201.976 437.258 198.714 440.656 209.545C446.444 227.996 430.747 273.764 430.747 273.764C430.747 273.764 429.33 278.628 424.162 279.171C418.991 279.714 355.846 281.544 355.223 279.171C352.77 269.83 375.833 273.611 384.834 271.003H384.832Z" fill="#3B60E4"/>
<path d="M374.385 157.45C374.073 158.942 366.581 158.647 357.645 156.793C348.71 154.94 341.719 152.224 342.03 150.734C342.339 149.242 349.834 149.537 358.769 151.391C367.705 153.247 374.696 155.96 374.385 157.45Z" fill="#2F1A31"/>
<path d="M287.544 200.23C283.671 198.35 288.702 184.743 288.702 184.743C289.549 183.588 313.981 194.87 332.912 180.994C339.656 176.053 344.257 154.837 344.346 152.622C344.352 152.477 349.311 151.401 357.437 152.97C364.138 154.265 370.842 158.399 370.842 158.399C370.678 162.412 367.235 178.753 361.634 188.972C350.047 210.117 310.15 215.873 287.544 200.23Z" fill="#F7B686"/>
<g opacity="0.5">
<path d="M336.529 197.897C335.704 197.897 334.965 197.623 334.461 197.061C333.274 195.735 333.825 193.299 335.693 191.63C337.558 189.961 340.043 189.681 341.231 191.005C342.418 192.331 341.866 194.767 339.999 196.436C338.925 197.396 337.648 197.897 336.529 197.897ZM339.165 191.018C338.257 191.018 337.168 191.453 336.26 192.265C334.77 193.599 334.237 195.535 335.094 196.494C335.952 197.454 337.938 197.138 339.429 195.803C340.919 194.469 341.452 192.534 340.595 191.574C340.26 191.2 339.751 191.018 339.165 191.018Z" fill="#E08B65"/>
</g>
<path d="M283.895 191.522C283.256 192.621 281.832 192.998 280.732 192.358L266.288 183.968C265.188 183.33 264.81 181.906 265.449 180.807C266.087 179.707 267.512 179.33 268.612 179.968L283.056 188.358C284.156 188.996 284.533 190.42 283.895 191.519V191.522Z" fill="#F7B686"/>
<path d="M286.871 186.404C286.232 187.504 284.808 187.881 283.708 187.24L264.982 176.364C263.882 175.726 263.504 174.302 264.143 173.203C264.781 172.104 266.206 171.727 267.306 172.365L286.032 183.24C287.132 183.878 287.509 185.302 286.871 186.402V186.404Z" fill="#F7B686"/>
<path d="M297.616 190.805L296.848 191.105C295.416 191.664 293.785 190.95 293.224 189.518L287.773 175.565C287.214 174.134 287.929 172.504 289.361 171.943L290.129 171.642C291.561 171.083 293.192 171.798 293.751 173.229L299.202 187.185C299.761 188.616 299.046 190.246 297.613 190.805H297.616Z" fill="#F7B686"/>
<path d="M289.852 181.287C289.214 182.386 287.789 182.763 286.689 182.125L271.379 173.232C270.279 172.594 269.902 171.17 270.543 170.071C271.182 168.971 272.606 168.594 273.706 169.232L289.016 178.125C290.116 178.764 290.493 180.187 289.855 181.287H289.852Z" fill="#F7B686"/>
<path d="M291.606 200.647C291.606 200.647 278.384 200.708 272.553 193.344C270.535 190.794 275.893 173.941 279.526 174.208C283.159 174.471 296.735 183.512 296.735 183.512L291.609 200.65L291.606 200.647Z" fill="#F7B686"/>
<path d="M281.001 196.547L280.919 196.687C280.304 197.747 278.933 198.108 277.875 197.493L266.209 190.718C265.148 190.103 264.787 188.732 265.401 187.672L265.483 187.533C266.098 186.473 267.47 186.111 268.53 186.726L280.196 193.502C281.257 194.116 281.618 195.487 281.003 196.547H281.001Z" fill="#F7B686"/>
<path d="M559.094 269.669H504.624V331.8H555.438L559.094 269.669Z" fill="#1F2232"/>
<path d="M533.781 269.669H475.081L477.659 331.8H533.781V269.669Z" fill="#1B317D"/>
<path d="M560.585 265.082H473.071L471.559 271.731L560.585 272.849V265.082Z" fill="#3B60E4"/>
<path d="M524.761 322.535H484.872C483.656 322.535 482.642 321.593 482.545 320.37L481.239 304.35C481.128 302.977 482.202 301.801 483.566 301.801H524.761C526.051 301.801 527.096 302.855 527.096 304.158V320.178C527.096 321.48 526.051 322.535 524.761 322.535Z" fill="#3B60E4"/>
<path d="M524.761 297.134H484.872C483.656 297.134 482.642 296.193 482.545 294.97L481.239 278.95C481.128 277.576 482.202 276.4 483.566 276.4H524.761C526.051 276.4 527.096 277.455 527.096 278.757V294.777C527.096 296.08 526.051 297.134 524.761 297.134Z" fill="#3B60E4"/>
<path d="M535.282 265.082V272.53L560.585 272.849V265.082H535.282Z" fill="#1B317D"/>
<path d="M487.178 331.8L486.515 334.884C486.304 336.501 485.085 336.511 484.531 336.501C483.656 336.487 483.025 334.977 483.247 333.582L483.524 331.8H487.18H487.178Z" fill="#2F1A31"/>
<path d="M525.109 331.8L525.772 334.884C525.983 336.501 527.201 336.511 527.755 336.501C528.631 336.487 529.262 334.977 529.043 333.582L528.766 331.8H525.109Z" fill="#2F1A31"/>
<path d="M548.856 331.8L549.518 334.884C549.729 336.501 550.948 336.511 551.502 336.501C552.378 336.487 553.008 334.977 552.787 333.582L552.51 331.8H548.853H548.856Z" fill="#2F1A31"/>
<path d="M503.893 282.206C503.218 282.206 502.571 281.926 502.21 281.476C501.914 281.109 501.814 280.653 501.917 280.16C502.168 278.955 502.925 278.206 503.896 278.206C504.961 278.206 506.062 278.879 506.062 280.004C506.062 281.13 505.252 282.209 503.896 282.209L503.893 282.206ZM502.352 280.252C502.276 280.616 502.344 280.933 502.555 281.194C502.835 281.542 503.35 281.758 503.893 281.758C504.972 281.758 505.616 280.867 505.616 280.002C505.616 279.137 504.74 278.652 503.893 278.652C502.769 278.652 502.429 279.875 502.352 280.25V280.252Z" fill="#2F1A31"/>
<path d="M503.97 284.587C503.671 284.587 503.426 284.342 503.426 284.044V281.924C503.426 281.626 503.669 281.381 503.97 281.381C504.268 281.381 504.513 281.626 504.513 281.924V284.044C504.513 284.342 504.268 284.587 503.97 284.587Z" fill="#2F1A31"/>
<path d="M503.893 308.239C503.218 308.239 502.571 307.96 502.21 307.509C501.914 307.142 501.814 306.689 501.917 306.193C502.168 304.988 502.925 304.24 503.896 304.24C504.961 304.24 506.062 304.912 506.062 306.038C506.062 307.164 505.252 308.242 503.896 308.242L503.893 308.239ZM502.352 306.286C502.276 306.649 502.344 306.966 502.555 307.227C502.835 307.575 503.35 307.791 503.893 307.791C504.972 307.791 505.616 306.9 505.616 306.038C505.616 305.176 504.74 304.688 503.893 304.688C502.769 304.688 502.429 305.911 502.352 306.286Z" fill="#2F1A31"/>
<path d="M503.97 310.62C503.671 310.62 503.426 310.375 503.426 310.077V307.957C503.426 307.659 503.669 307.414 503.97 307.414C504.268 307.414 504.513 307.659 504.513 307.957V310.077C504.513 310.375 504.268 310.62 503.97 310.62Z" fill="#2F1A31"/>
<path d="M524.241 243.926L504.64 243.264L482.424 243.847L482.368 245.534L503.856 244.569C506.017 244.643 507.703 246.636 507.623 249.025C507.544 251.414 505.729 253.288 503.569 253.217L482.136 252.495L482.094 253.742L523.869 255.15C526.674 255.245 529.03 252.808 529.133 249.71C529.235 246.612 527.046 244.023 524.241 243.928V243.926Z" fill="#FF595E"/>
<path d="M509.531 249.046C509.634 245.948 507.444 243.359 504.64 243.264L482.424 243.847L482.368 245.534L503.856 244.569C506.017 244.643 507.703 246.636 507.623 249.025C507.544 251.414 505.729 253.288 503.569 253.217L482.136 252.495L482.094 253.742L504.265 254.49C507.069 254.585 509.425 252.149 509.528 249.051L509.531 249.046Z" fill="#E28569"/>
<path d="M503.856 244.574L482.368 245.534C484.307 245.848 484.893 247.836 485.162 248.896C485.708 251.047 484.093 252.286 482.139 252.468V252.497L503.571 253.22C505.732 253.294 507.547 251.416 507.626 249.03C507.705 246.642 506.019 244.648 503.859 244.574H503.856Z" fill="#E6EDFF"/>
<path d="M485.222 249.872L485.218 249.99L502.517 250.573L502.521 250.454L485.222 249.872Z" fill="#2F1A31"/>
<g opacity="0.4">
<path d="M507.449 253.958C507.373 253.958 507.299 253.921 507.254 253.852C507.183 253.744 507.212 253.597 507.317 253.526C507.336 253.515 509.024 252.331 509.296 249.028C509.565 245.745 507.286 244.485 507.262 244.474C507.149 244.414 507.104 244.271 507.164 244.155C507.225 244.039 507.368 243.997 507.481 244.058C507.586 244.113 510.058 245.479 509.763 249.067C509.47 252.616 507.655 253.868 507.579 253.918C507.539 253.945 507.494 253.958 507.449 253.958Z" fill="#436E8E"/>
</g>
<path d="M498.444 248.622L485.155 248.854L485.157 248.973L498.446 248.741L498.444 248.622Z" fill="#2F1A31"/>
<g opacity="0.4">
<path d="M514.364 252.79C514.364 252.79 514.359 252.79 514.356 252.79L510.167 252.648C510.085 252.648 510.011 252.597 509.969 252.526C509.929 252.452 509.929 252.365 509.971 252.294C509.979 252.281 510.702 251.018 511.122 249.32C511.528 247.686 510.423 245.982 510.412 245.967C510.362 245.893 510.359 245.798 510.401 245.721C510.444 245.645 510.518 245.605 510.612 245.6L514.588 245.735C514.662 245.735 514.731 245.774 514.773 245.835C517.261 249.42 514.57 252.677 514.541 252.708C514.496 252.761 514.43 252.79 514.364 252.79ZM510.557 252.189L514.253 252.313C514.646 251.799 516.438 249.167 514.454 246.199L511.019 246.083C511.351 246.723 511.913 248.073 511.575 249.431C511.267 250.683 510.808 251.688 510.557 252.189Z" fill="#436E8E"/>
</g>
<path d="M480.73 253.853H500.345L522.529 255.184V256.874L501.083 255.184C498.923 255.184 497.171 257.119 497.171 259.511C497.171 261.899 498.923 263.837 501.083 263.837H522.529V265.084H480.73C477.925 265.084 475.651 262.572 475.651 259.471C475.651 256.37 477.925 253.858 480.73 253.858V253.853Z" fill="#88A0F5"/>
<path d="M495.264 259.466C495.264 256.365 497.538 253.853 500.342 253.853L522.527 255.184V256.874L501.081 255.184C498.92 255.184 497.168 257.119 497.168 259.511C497.168 261.899 498.92 263.837 501.081 263.837H522.527V265.084H500.342C497.538 265.084 495.264 262.572 495.264 259.471V259.466Z" fill="#88A0F5"/>
<path d="M501.083 255.189L522.529 256.874C520.582 257.122 519.931 259.089 519.627 260.138C519.01 262.268 520.582 263.563 522.529 263.808V263.837H501.083C498.923 263.837 497.171 261.902 497.171 259.51C497.171 257.122 498.923 255.187 501.083 255.187V255.189Z" fill="#E6EDFF"/>
<path d="M519.506 261.121H502.197V261.24H519.506V261.121Z" fill="#2F1A31"/>
<path d="M497.052 264.399C496.976 264.346 495.203 263.033 495.029 259.476C494.852 255.88 497.366 254.599 497.474 254.546L497.683 254.968C497.588 255.015 495.337 256.175 495.498 259.453C495.662 262.764 497.311 264.003 497.327 264.016L497.052 264.396V264.399Z" fill="#2F1A31"/>
<path d="M519.622 260.196L506.347 259.526L506.352 259.408L519.627 260.08L519.622 260.196Z" fill="#2F1A31"/>
<path d="M490.317 256.218H494.295C494.295 256.218 493.061 257.963 493.435 259.732C493.813 261.501 494.509 262.806 494.509 262.806H490.317C490.317 262.806 487.79 259.611 490.317 256.218Z" fill="#2F1A31"/>
<path d="M216.31 181.302C216.31 181.302 229.427 183.019 232.252 186.433C235.078 189.848 236.102 196.344 233.901 194.599C231.701 192.853 229.506 189.848 229.506 189.848C229.506 189.848 233.893 196.492 231.896 196.845C229.897 197.198 226.137 191.385 226.137 191.385C226.137 191.385 230.728 199.706 228.733 199.426C226.736 199.149 223.293 192.803 223.293 192.803C223.293 192.803 227.256 200.715 224.945 200.338C222.634 199.961 221.713 193.779 219.713 194.132C217.713 194.485 211.603 197.541 209.944 192.107L216.315 181.305L216.31 181.302Z" fill="#F7B686"/>
<path d="M171.901 202.624H213.962C214.843 202.624 215.624 202.065 215.901 201.235L224.641 175.146C225.082 173.833 224.095 172.475 222.702 172.475H182.254C180.41 172.475 178.774 173.646 178.193 175.383L169.962 199.953C169.522 201.266 170.508 202.624 171.901 202.624Z" fill="#D38828"/>
<path d="M174.54 202.624H216.6C217.481 202.624 218.262 202.065 218.539 201.235L227.28 175.146C227.72 173.833 226.733 172.475 225.34 172.475H184.892C183.048 172.475 181.412 173.646 180.832 175.383L172.601 199.953C172.16 201.266 173.147 202.624 174.54 202.624Z" fill="#FFA737"/>
<path d="M204.013 186.697C204.013 185.706 202.871 185.302 201.871 185.302C200.871 185.302 199.244 186.388 199.254 187.778C199.265 189.275 200.436 189.471 201.436 189.471C202.436 189.471 204.013 187.957 204.013 186.697Z" fill="#DEEBE9"/>
<path d="M216.624 202.624H157.869C157.186 202.624 156.632 202.071 156.632 201.388V201.369C156.632 200.027 157.721 198.936 159.067 198.936H216.624V202.622V202.624Z" fill="#D38828"/>
<path d="M177.531 185.666L177.267 185.595C177.352 185.276 179.36 177.751 180.713 175.318C182.085 172.85 183.765 172.365 183.834 172.344L183.908 172.607C183.892 172.612 182.264 173.09 180.953 175.449C179.615 177.854 177.552 185.587 177.531 185.663V185.666Z" fill="#436E8E"/>
<path d="M171.316 199.076V198.801C172.606 198.801 172.988 198.303 173.033 198.232L176.307 188.463L176.566 188.55L173.286 198.335C173.263 198.385 172.872 199.076 171.313 199.076H171.316Z" fill="#436E8E"/>
<path d="M315.221 79.5421L278.481 82.6928C277.674 82.7613 276.355 82.0257 276.181 81.2348C275.819 79.6107 277.35 79.0069 278.157 78.9383L314.97 76.6024C315.777 76.5338 316.498 77.1376 316.566 77.9444C316.635 78.7538 316.031 79.4709 315.223 79.5395L315.221 79.5421Z" fill="#DEEBE9"/>
<path d="M310.037 73.0378L282.304 75.4159C281.695 75.4687 280.697 74.8728 280.56 74.2348C280.281 72.9297 281.434 72.4498 282.043 72.3971L309.834 70.6754C310.443 70.6227 310.989 71.1104 311.044 71.7617C311.1 72.4103 310.646 72.985 310.037 73.0378Z" fill="#DEEBE9"/>
<path d="M311.227 86.8849L283.494 89.2631C282.885 89.3158 281.887 88.72 281.75 88.0819C281.47 86.7768 282.623 86.297 283.233 86.2442L311.023 84.5226C311.633 84.4698 312.179 84.9576 312.234 85.6088C312.29 86.2574 311.836 86.8322 311.227 86.8849Z" fill="#DEEBE9"/>
</g>
<defs>
<clipPath id="clip0_1_802">
<rect width="616" height="413" fill="white"/>
</clipPath>
</defs>
</svg>
