<svg width="24" height="24" viewBox="0 0 24 24" fill="none" xmlns="http://www.w3.org/2000/svg">
<circle cx="12" cy="12" r="9" stroke="black" stroke-width="2" stroke-linecap="round" stroke-linejoin="round"/>
<path d="M9 9H9.01" stroke="black" stroke-width="2" stroke-linecap="round" stroke-linejoin="round"/>
<path d="M15 9H15.01" stroke="black" stroke-width="2" stroke-linecap="round" stroke-linejoin="round"/>
<path d="M9 13C9 12.4477 8.55228 12 8 12C7.44772 12 7 12.4477 7 13H9ZM17 13C17 12.4477 16.5523 12 16 12C15.4477 12 15 12.4477 15 13H17ZM16 14C16.5523 14 17 13.5523 17 13C17 12.4477 16.5523 12 16 12V14ZM8 12C7.44772 12 7 12.4477 7 13C7 13.5523 7.44772 14 8 14V12ZM7 13C7 15.7614 9.23858 18 12 18V16C10.3431 16 9 14.6569 9 13H7ZM12 18C14.7614 18 17 15.7614 17 13H15C15 14.6569 13.6569 16 12 16V18ZM16 12H8V14H16V12Z" fill="black"/>
</svg>
